<svg width="160" height="160" viewBox="0 0 160 160" fill="none" xmlns="http://www.w3.org/2000/svg">
<path d="M92 1H20C10.0589 1 2 9.05887 2 19V141C2 150.941 10.0589 159 20 159H92C101.941 159 110 150.941 110 141V101.5C110 99.9056 107.356 98.1078 105.052 98.571C102.281 99.1278 99.9683 101.903 97.1459 101.769C93.9852 101.618 91.5 99.012 91.5 95.8477V58.7613C91.5 51.5882 98.8586 46.5956 101.565 53.2387C102.028 54.3766 102 55.1229 102 56.3516V62.5241C102 63.8374 102.004 65.257 102.843 66.2674C104.908 68.7539 109.579 67.8667 110 64.5V19C110 9.05888 101.941 1 92 1Z" fill="#A7A8AC"/>
<rect x="10" y="24" width="92" height="15" rx="7.5" fill="white"/>
<rect x="43" y="8" width="27" height="10" rx="5" fill="white"/>
<rect x="72" y="8" width="10" height="10" rx="5" fill="white"/>
<rect x="10" y="46" width="92" height="102" rx="11" fill="white"/>
<rect x="40" y="135" width="34" height="9" rx="4.5" fill="#A7A8AD"/>
<path fill-rule="evenodd" clip-rule="evenodd" d="M129.6 57.3489C130.303 56.6459 131.256 56.251 132.251 56.251C133.245 56.251 134.199 56.6459 134.902 57.3489L157.402 79.8489C158.105 80.5522 158.5 81.5058 158.5 82.5002C158.5 83.4945 158.105 84.4482 157.402 85.1514L134.902 107.651C134.195 108.335 133.248 108.713 132.264 108.704C131.281 108.695 130.341 108.301 129.645 107.606C128.95 106.91 128.556 105.97 128.547 104.987C128.538 104.003 128.916 103.056 129.6 102.349L145.698 86.2502L102.251 86.2502C101.256 86.2502 100.302 85.8551 99.5991 85.1518C98.8959 84.4486 98.5008 83.4947 98.5008 82.5002C98.5008 81.5056 98.8959 80.5518 99.5992 79.8485C100.302 79.1453 101.256 78.7502 102.251 78.7502L145.698 78.7502L129.6 62.6514C128.897 61.9482 128.502 60.9945 128.502 60.0002C128.502 59.0058 128.897 58.0522 129.6 57.3489Z" fill="#A7A8AC"/>
<path d="M80.7539 82.5061C80.7539 80.4311 82.436 78.749 84.511 78.749H111.242C113.317 78.749 114.999 80.4311 114.999 82.5061V82.5061C114.999 84.5811 113.317 86.2632 111.242 86.2632H84.511C82.436 86.2632 80.7539 84.5811 80.7539 82.5061V82.5061Z" fill="#A7A8AC"/>
</svg>
